<svg xmlns="http://www.w3.org/2000/svg" width="347.85056mm" height="181.64627mm" viewBox="0 0 347.85056 181.64627"><defs><clipPath id="a" clipPathUnits="userSpaceOnUse"><path d="M0 0h1360.63v708.661H0Z"/></clipPath><clipPath id="b" clipPathUnits="userSpaceOnUse"><path d="M0 0h1360.63v708.661H0Z"/></clipPath><clipPath id="d" clipPathUnits="userSpaceOnUse"><path d="M0 0h1360.63v708.661H0Z"/></clipPath><clipPath id="e" clipPathUnits="userSpaceOnUse"><path d="M0 0h1360.63v708.661H0Z"/></clipPath><clipPath id="c" clipPathUnits="userSpaceOnUse"><path d="M0 0h1360.63v708.661H0Z"/></clipPath><clipPath id="f" clipPathUnits="userSpaceOnUse"><path d="M0 0h1360.63v708.661H0Z"/></clipPath></defs><g transform="translate(76.717 -79.73)"><ellipse cx="-89.69577" cy="93.541733" rx="16.001366" ry="8.0155382" style="fill:#fff;fill-opacity:1;stroke-width:.330547" transform="matrix(.61374 -.7895 .51792 .85543 0 0)"/><g clip-path="url(#a)" style="fill:gray" transform="matrix(3.03605 0 0 -3.03605 -419.16 2162.416)"><g style="fill:gray"><path d="M0 0c-7.265 2.42-12.394.119-16.084-3.474-2.118-1.968-2.957-4.36-6.164-4.982C-27.004-9.362-28.294-3.68-19.23.3-8.829 4.867 0 0 0 0" style="fill:#0089d0;fill-opacity:1;fill-rule:nonzero;stroke:none" transform="translate(144.725 672.036)"/></g></g><g style="fill:gray"><path d="m0 0 1.598-.25-.997 1.275 1.193 1.093-1.617.015L.062 3.75-.957 2.494l-1.329.922.342-1.583-1.549-.473 1.45-.713-.602-1.503 1.466.686.798-1.405z" style="fill:#a6b0b5;fill-opacity:1;fill-rule:nonzero;stroke:none" transform="matrix(3.03605 0 0 -3.03605 40.945 112.739)"/></g><g clip-path="url(#b)" style="fill:gray" transform="matrix(3.03605 0 0 -3.03605 -419.16 2162.416)"><g style="fill:gray"><path d="M0 0c-12.028 1.174-15.129-9.328-24.076-11.883-9.554-2.732-10.446 3.76-7.857 7.518-.102-.149-2.475-2.789-2.824-6.437-.507-5.301 2.926-9.158 10.368-8.042C-9.762-15.875-6.62-3.98 3.411-3.98c3.701 0 6.964-.969 10.644-3.159C11.063-3.302 3.874-.378 0 0m-9.5-9.042-1.486.233-.349-1.459-.744 1.304-1.358-.638.558 1.392-1.351.666 1.44.437-.319 1.466 1.236-.856.948 1.169.106-1.501 1.503-.014-1.11-1.016z" style="fill:#0089d0;fill-opacity:1;fill-rule:nonzero;stroke:none" transform="translate(147.598 670.397)"/></g></g><g style="fill:gray"><path d="m0 0 2.002-.311L.754 1.284l1.493 1.37-2.024.019-.141 2.02-1.279-1.571-1.668 1.153.436-1.977-1.944-.589 1.816-.897-.752-1.882 1.833.861 1.003-1.762z" style="fill:#a6b0b5;fill-opacity:1;fill-rule:nonzero;stroke:none" transform="matrix(3.03605 0 0 -3.03605 -20.597 93.978)"/></g><g style="fill:gray"><path d="M0 0c5.784 5.936 9.049 8.111 13.897 8.111 3.13 0 7.312-2.444 8.296-4.053C16.106 7.389 6.921 4.678 0 0" style="fill:#a6b0b5;fill-opacity:1;fill-rule:nonzero;stroke:none" transform="matrix(3.03605 0 0 -3.03605 2.188 170.026)"/></g><g style="fill:#5a5c52;fill-opacity:1"><g style="fill:#5a5c52;fill-opacity:1"><path d="M0 0h4.264v.972H-.519A1.365 1.365 0 0 1-1.883-.393v-2.079c0-.755.61-1.365 1.364-1.365h3.452c.753 0 1.365.61 1.365 1.365v1.583H1.29v-.973h1.617v-.378a.491.491 0 0 0-.49-.492H0a.494.494 0 0 0-.492.492v1.748C-.492-.22-.269 0 0 0" style="fill:#5a5c52;fill-opacity:1;fill-rule:nonzero;stroke:none" transform="matrix(3.03605 0 0 -3.03605 38.737 180.161)"/></g><g style="fill:#5a5c52;fill-opacity:1"><path d="M0 0h3.314v-1.84H4.64v4.701H3.314V1.127H0v1.734h-1.326V-1.84H0Z" style="fill:#5a5c52;fill-opacity:1;fill-rule:nonzero;stroke:none" transform="matrix(3.03605 0 0 -3.03605 102.435 186.064)"/></g><g clip-path="url(#c)" style="fill:#5a5c52;fill-opacity:1" transform="matrix(3.03605 0 0 -3.03605 -419.16 2162.416)"><g style="fill:#5a5c52;fill-opacity:1"><path d="M0 0h-3.92a.492.492 0 0 0-.494.492V2.24c0 .272.219.492.494.492h3.761v.972h-4.28a1.367 1.367 0 0 1-1.364-1.365V.26c0-.755.613-1.365 1.364-1.365H0Z" style="fill:#5a5c52;fill-opacity:1;fill-rule:nonzero;stroke:none" transform="translate(169.33 650.173)"/></g></g><g style="fill:#5a5c52;fill-opacity:1"><path d="M0 0v.946h-3.918v1.02h2.93v.844h-2.93v.97h3.831v.936h-5.157V.018h1.019z" style="fill:#5a5c52;fill-opacity:1;fill-rule:nonzero;stroke:none" transform="matrix(3.03605 0 0 -3.03605 137.012 191.695)"/></g><g style="fill:#5a5c52;fill-opacity:1"><path d="M0 0h1.849L-.988 2.393l2.54 2.293H-.227l-.499-.47.002-.003-1.942-1.828Z" style="fill:#5a5c52;fill-opacity:1;fill-rule:nonzero;stroke:none" transform="matrix(3.03605 0 0 -3.03605 176.72 191.606)"/></g><g style="fill:#5a5c52;fill-opacity:1"><path d="m0 0 .005-.894h1.319v4.686H.005L0 2.917l.005.002V.136Z" style="fill:#5a5c52;fill-opacity:1;fill-rule:nonzero;stroke:none" transform="matrix(3.03605 0 0 -3.03605 163.845 188.891)"/></g><g clip-path="url(#d)" style="fill:#5a5c52;fill-opacity:1" transform="matrix(3.03605 0 0 -3.03605 -419.16 2162.416)"><g style="fill:#5a5c52;fill-opacity:1"><path d="M0 0h2.89c1.036 0 1.876.841 1.876 1.873v1.063c0 1.032-.84 1.873-1.876 1.873H0a1.877 1.877 0 0 1-1.876-1.873V1.873C-1.876.841-1.035 0 0 0m-.489 2.841c0 .548.446.991.992.991H2.39a.99.99 0 0 0 .99-.991v-.875a.99.99 0 0 0-.99-.989H.503a.992.992 0 0 0-.992.989z" style="fill:#5a5c52;fill-opacity:1;fill-rule:nonzero;stroke:none" transform="translate(185.893 649.068)"/></g><g style="fill:#5a5c52;fill-opacity:1"><path d="M0 0h2.894c1.033 0 1.872.841 1.872 1.873v1.063a1.875 1.875 0 0 1-1.872 1.873H0a1.876 1.876 0 0 1-1.871-1.873V1.873C-1.871.841-1.03 0 0 0m-.49 2.841c0 .548.447.991.992.991H2.39a.991.991 0 0 0 .992-.991v-.875A.991.991 0 0 0 2.39.977H.502a.993.993 0 0 0-.992.989z" style="fill:#5a5c52;fill-opacity:1;fill-rule:nonzero;stroke:none" transform="translate(157.895 649.068)"/></g><g style="fill:#5a5c52;fill-opacity:1"><path d="M0 0h10.506a2.823 2.823 0 0 1 2.819 2.816v4.221a2.824 2.824 0 0 1-2.819 2.82H0Zm10.402 6.834V3.292a.946.946 0 0 0-.943-.945H2.924v5.432h6.535a.946.946 0 0 0 .943-.945" style="fill:#5a5c52;fill-opacity:1;fill-rule:nonzero;stroke:none" transform="translate(167.323 636.15)"/></g><g style="fill:#5a5c52;fill-opacity:1"><path d="M0 0h5.879a3.87 3.87 0 0 1 3.864 3.863v2.156a3.868 3.868 0 0 1-3.864 3.864H0a3.867 3.867 0 0 1-3.861-3.864V3.863A3.869 3.869 0 0 1 0 0m6.822 4.053c0-1.081-.88-1.963-1.964-1.963H1.022A1.966 1.966 0 0 0-.94 4.053V5.83c0 1.083.88 1.964 1.962 1.964h3.836A1.966 1.966 0 0 0 6.822 5.83z" style="fill:#5a5c52;fill-opacity:1;fill-rule:nonzero;stroke:none" transform="translate(186.352 636.135)"/></g><g style="fill:#5a5c52;fill-opacity:1"><path d="M0 0h-6.778a.716.716 0 0 0-.713.715v.456c0 .392.32.715.713.715h4.167v.002h4.126v2.056h-9.988a2.012 2.012 0 0 1-2.009-2.009V.025a2.01 2.01 0 0 1 2.009-2.008H-1.7a.717.717 0 0 0 .716-.715v-.455a.717.717 0 0 0-.716-.716h-6.571c-.049 0-.204.007-.204.007h-2.007v-2.06H0c1.105 0 2.005.899 2.005 2.007v1.908A2.01 2.01 0 0 1 0 0" style="fill:#5a5c52;fill-opacity:1;fill-rule:nonzero;stroke:none" transform="translate(130.169 642.062)"/></g></g><path d="M-11.147 231.033h8.668v-29.927h-8.668z" style="fill:#5a5c52;fill-opacity:1;fill-rule:nonzero;stroke:none;stroke-width:3.03606"/><g style="fill:#5a5c52;fill-opacity:1"><path d="M0 0h-3.842l-3.015-2.841-.115-.097-2.024-1.905 5.609-5.014H.628l-5.961 5.038z" style="fill:#5a5c52;fill-opacity:1;fill-rule:nonzero;stroke:none" transform="matrix(3.03605 0 0 -3.03605 25.968 201.107)"/></g><g clip-path="url(#e)" style="fill:#5a5c52;fill-opacity:1" transform="matrix(3.03605 0 0 -3.03605 -419.16 2162.416)"><g style="fill:#5a5c52;fill-opacity:1"><path d="M0 0h2.86v3.438l5.455 6.419H4.884l-.705-.854a.71.71 0 0 0-.114-.143L1.432 5.665-1.195 8.85a.588.588 0 0 0-.131.183l-.679.824h-3.447L0 3.438Z" style="fill:#5a5c52;fill-opacity:1;fill-rule:nonzero;stroke:none" transform="translate(153.1 636.15)"/></g></g><g style="fill:#5a5c52;fill-opacity:1"><path d="M0 0h2.761v9.857h-4.365L-5.17 3.234l-3.564 6.623h-4.332V0h2.774l-.02 7.246L-6.259 0h2.177l4.021 7.185.061.061Z" style="fill:#5a5c52;fill-opacity:1;fill-rule:nonzero;stroke:none" transform="matrix(3.03605 0 0 -3.03605 222.626 231.032)"/></g><g style="fill:#5a5c52;fill-opacity:1"><path d="M0 0v2.005h6.075v1.856H0v1.901h7.939V7.82H-2.863v-9.857H8.118V0Z" style="fill:#5a5c52;fill-opacity:1;fill-rule:nonzero;stroke:none" transform="matrix(3.03605 0 0 -3.03605 246.487 224.849)"/></g><g style="fill:#5a5c52;fill-opacity:1"><path d="M0 0h4.23v-1.573h1.188V.601H0Z" style="fill:#5a5c52;fill-opacity:1;fill-rule:nonzero;stroke:none" transform="matrix(3.03605 0 0 -3.03605 62.553 256.598)"/></g><path d="M82.816 257.68h23.144v-1.824H82.816Z" style="fill:#5a5c52;fill-opacity:1;fill-rule:nonzero;stroke:none;stroke-width:3.03606"/><g style="fill:#5a5c52;fill-opacity:1"><path d="M0 0h2.288v.601h-4.503v.975h4.436v.601h-5.626V0h2.22v-.762h-3.259v-.6h7.702v.6H0Z" style="fill:#5a5c52;fill-opacity:1;fill-rule:nonzero;stroke:none" transform="matrix(3.03605 0 0 -3.03605 173.243 248.194)"/></g><g style="fill:#5a5c52;fill-opacity:1"><path d="M0 0h-1.19v-6.669H0v3.9h1.394v.601H0Z" style="fill:#5a5c52;fill-opacity:1;fill-rule:nonzero;stroke:none" transform="matrix(3.03605 0 0 -3.03605 127.915 241.129)"/></g><g clip-path="url(#f)" style="fill:#5a5c52;fill-opacity:1" transform="matrix(3.03605 0 0 -3.03605 -419.16 2162.416)"><g style="fill:#5a5c52;fill-opacity:1"><path d="m0 0 .063.078.063-.076a3.825 3.825 0 0 1 2.077-1.284l.279.582C.943-.196.698.933.664 1.401l-.005.09h1.494v.601H.659v.752H-.528l-.003-.752h-1.495v-.601h1.495l-.007-.09C-.573.931-.819-.198-2.356-.7l.281-.582A3.792 3.792 0 0 1 0 0" style="fill:#5a5c52;fill-opacity:1;fill-rule:nonzero;stroke:none" transform="translate(159.4 630.402)"/></g><g style="fill:#5a5c52;fill-opacity:1"><path d="M0 0h-.823l-.082-.771c-.274-.909-1.229-1.884-2.74-2.215l.272-.778c1.241.176 2.47.758 3.227 1.687.756-.929 1.985-1.511 3.226-1.687l.274.778C1.546-2.589.532-1.272.532-.249V0Z" style="fill:#5a5c52;fill-opacity:1;fill-rule:nonzero;stroke:none" transform="translate(169.295 632.736)"/></g><g style="fill:#5a5c52;fill-opacity:1"><path d="M0 0c-1.285 0-2.33-.88-2.33-1.958 0-1.082 1.045-1.961 2.33-1.961 1.285 0 2.332.879 2.332 1.961C2.332-.88 1.285 0 0 0m0-3.309c-.633 0-1.147.606-1.147 1.351C-1.147-1.217-.633-.61 0-.61s1.146-.607 1.146-1.348c0-.745-.513-1.351-1.146-1.351" style="fill:#5a5c52;fill-opacity:1;fill-rule:nonzero;stroke:none" transform="translate(184.67 632.673)"/></g><g style="fill:#5a5c52;fill-opacity:1"><path d="M0 0h2.516v-.082c0-.393-.026-.747-.082-1.084l-.012-.071H.109v-.6h2.167l-.043-.112C1.83-3.015 1.026-3.44.153-3.796l.407-.623c3.108 1.2 3.156 3.22 3.156 5.02H0Z" style="fill:#5a5c52;fill-opacity:1;fill-rule:nonzero;stroke:none" transform="translate(173.975 631.893)"/></g></g><g style="fill:#5a5c52;fill-opacity:1"><path d="M0 0h-1.462v-.602H0V-2.31h1.188v3.873H0Z" style="fill:#5a5c52;fill-opacity:1;fill-rule:nonzero;stroke:none" transform="matrix(3.03605 0 0 -3.03605 75.396 245.875)"/></g><path d="M152.099 261.375h3.613v-20.247h-3.613zM163.308 261.023h16.48v-6.646h-16.48zm3.607-4.83h9.275v3.002h-9.275z" style="fill:#5a5c52;fill-opacity:1;fill-rule:nonzero;stroke:none;stroke-width:3.03606"/><g style="fill:#5a5c52;fill-opacity:1"><path d="M0 0v3.44h-5.624v-.601h4.434V0Z" style="fill:#5a5c52;fill-opacity:1;fill-rule:nonzero;stroke:none" transform="matrix(3.03605 0 0 -3.03605 52.514 252.574)"/></g><g style="fill:#5a5c52;fill-opacity:1"><path d="M0 0h-1.188v-2.222h-2.455v-.602H3.98v.602H0Z" style="fill:#5a5c52;fill-opacity:1;fill-rule:nonzero;stroke:none" transform="matrix(3.03605 0 0 -3.03605 43.277 249.108)"/></g></g></g></svg>